HIERARCHY
ROOT joint_Root
{
	OFFSET 0.0 0.0 0.0
	CHANNELS 6 Xposition Yposition Zposition Zrotation Xrotation Yrotation 
	JOINT Hips
	{
		OFFSET -17.1583 93.1646 452.98
		CHANNELS 6 Xposition Yposition Zposition Zrotation Xrotation Yrotation 
		JOINT Spine
		{
			OFFSET 15.7357 0.0 0.0
			CHANNELS 6 Xposition Yposition Zposition Zrotation Xrotation Yrotation 
			JOINT Chest
			{
				OFFSET 8.98455 -0.406207 0.0
				CHANNELS 6 Xposition Yposition Zposition Zrotation Xrotation Yrotation 
				JOINT Neck
				{
					OFFSET 16.3773 0.0 0.0
					CHANNELS 6 Xposition Yposition Zposition Zrotation Xrotation Yrotation 
					JOINT Head
					{
						OFFSET 6.45672 0.0 0.0
						CHANNELS 6 Xposition Yposition Zposition Zrotation Xrotation Yrotation 
						End Site
						{
							OFFSET 0.0 0.0 0.0
						}
					}
				}
				JOINT Shoulder_L
				{
					OFFSET 12.9942 -0.242716 4.98039
					CHANNELS 6 Xposition Yposition Zposition Zrotation Xrotation Yrotation 
					JOINT UpperArm_L
					{
						OFFSET 5.34809 0.0 0.0
						CHANNELS 6 Xposition Yposition Zposition Zrotation Xrotation Yrotation 
						JOINT LowerArm_L
						{
							OFFSET 24.3286 1.87007e-05 0.0
							CHANNELS 6 Xposition Yposition Zposition Zrotation Xrotation Yrotation 
							JOINT Hand_L
							{
								OFFSET 22.2916 0.0 0.0
								CHANNELS 6 Xposition Yposition Zposition Zrotation Xrotation Yrotation 
								End Site
								{
									OFFSET 0.0 0.0 0.0
								}
							}
						}
					}
				}
				JOINT Shoulder_R
				{
					OFFSET 12.9945 -0.242716 -4.98039
					CHANNELS 6 Xposition Yposition Zposition Zrotation Xrotation Yrotation 
					JOINT UpperArm_R
					{
						OFFSET -5.34813 0.0 0.0
						CHANNELS 6 Xposition Yposition Zposition Zrotation Xrotation Yrotation 
						JOINT LowerArm_R
						{
							OFFSET -24.3289 0.000322201 0.0
							CHANNELS 6 Xposition Yposition Zposition Zrotation Xrotation Yrotation 
							JOINT Hand_R
							{
								OFFSET -22.2915 -0.000108084 0.0
								CHANNELS 6 Xposition Yposition Zposition Zrotation Xrotation Yrotation 
								End Site
								{
									OFFSET 0.0 0.0 0.0
								}
							}
						}
					}
				}
			}
		}
		JOINT UpperLeg_L
		{
			OFFSET -2.19248 -6.46944 0.0
			CHANNELS 6 Xposition Yposition Zposition Zrotation Xrotation Yrotation 
			JOINT LowerLeg_L
			{
				OFFSET 39.0811 0.0 -1.23785e-05
				CHANNELS 6 Xposition Yposition Zposition Zrotation Xrotation Yrotation 
				JOINT Foot_L
				{
					OFFSET 40.9854 0.0 -1.26872e-05
					CHANNELS 6 Xposition Yposition Zposition Zrotation Xrotation Yrotation 
					JOINT Toes_L
					{
						OFFSET 11.7543 0.0 0.0
						CHANNELS 6 Xposition Yposition Zposition Zrotation Xrotation Yrotation 
						End Site
						{
							OFFSET 0.0 0.0 0.0
						}
					}
				}
			}
		}
		JOINT UpperLeg_R
		{
			OFFSET -2.19251 6.46944 0.0
			CHANNELS 6 Xposition Yposition Zposition Zrotation Xrotation Yrotation 
			JOINT LowerLeg_R
			{
				OFFSET -39.0811 -0.00228153 -0.0401928
				CHANNELS 6 Xposition Yposition Zposition Zrotation Xrotation Yrotation 
				JOINT Foot_R
				{
					OFFSET -40.9854 0.0 0.0
					CHANNELS 6 Xposition Yposition Zposition Zrotation Xrotation Yrotation 
					JOINT Toes_R
					{
						OFFSET -11.7543 0.0 0.0
						CHANNELS 6 Xposition Yposition Zposition Zrotation Xrotation Yrotation 
						End Site
						{
							OFFSET 0.0 0.0 0.0
						}
					}
				}
			}
		}
	}
}
MOTION
Frames:	6
Frame Time:	0.0333333
0.000000 0.000000 0.000000 0.000000 0.000000 -0.000000 1.079260 90.759000 10.366600 89.712500 1.445310 8.959000 15.735700 0.000005 -0.000001 -40.119200 89.592700 40.894600 8.984550 -0.406207 -0.000000 -8.285930 -0.729610 1.501390 16.377300 -0.000001 -0.000001 0.722984 0.769719 0.307542 6.456720 -0.000001 -0.000000 -0.407517 2.254460 -6.091910 12.994200 -0.242716 4.980390 -87.368400 -4.853900 -61.489400 5.348090 -0.000007 -0.000001 -48.525900 -54.893600 -97.796800 24.328600 0.000019 0.000005 0.072041 10.332900 -0.401352 22.291600 -0.000001 0.000005 30.630900 4.536390 15.994500 12.994500 -0.242716 -4.980390 94.906500 -8.836190 -60.801200 -5.348130 -0.000001 -0.000004 -61.257000 -51.530600 -115.158000 -24.328900 0.000322 -0.000009 -0.001043 -8.515530 -0.000051 -22.291500 -0.000108 -0.000004 41.550200 5.522300 -7.460570 -2.192480 -6.469440 -0.000000 -173.718000 -6.335240 12.414200 39.081100 -0.000007 -0.000012 0.083733 -0.236691 19.482200 40.985400 -0.000006 -0.000013 1.542100 14.542000 -76.192700 11.754300 -0.000000 0.000003 -0.002969 0.207878 -8.141710 -2.192510 6.469440 -0.000001 172.007000 7.755810 -165.864000 -39.081100 -0.002282 -0.040193 -0.048286 0.161138 17.759800 -40.985400 0.000008 0.000006 -9.720610 6.237930 -76.031600 -11.754300 -0.000006 -0.000006 -0.012157 0.286769 -4.918030
0.000000 0.000000 0.000000 0.000000 0.000000 -0.000000 1.042620 90.783000 10.401400 89.736700 1.434710 8.839160 15.735700 0.000005 -0.000001 -41.248600 89.587100 41.999300 8.984550 -0.406207 -0.000000 -8.305630 -0.724150 1.452300 16.377300 -0.000001 -0.000001 0.702765 0.739777 0.328896 6.456720 -0.000001 -0.000000 -0.429142 2.245260 -6.068600 12.994200 -0.242716 4.980390 -87.384100 -4.832260 -61.526300 5.348090 -0.000007 -0.000001 -48.262300 -54.884000 -97.626100 24.328600 0.000019 0.000005 0.049185 10.188000 -0.277776 22.291600 -0.000001 0.000005 30.604000 4.542620 15.890000 12.994500 -0.242716 -4.980390 94.881700 -8.785630 -60.786900 -5.348130 -0.000001 -0.000004 -61.086900 -51.571800 -114.928000 -24.328900 0.000322 -0.000009 -0.001039 -8.552630 -0.000051 -22.291500 -0.000108 -0.000004 41.642800 5.522100 -7.452180 -2.192480 -6.469440 -0.000000 -173.767000 -6.251660 12.478600 39.081100 -0.000007 -0.000012 0.083014 -0.238715 19.175400 40.985400 -0.000006 -0.000013 1.471690 14.467200 -76.115600 11.754300 -0.000000 0.000003 -0.002956 0.207730 -8.147730 -2.192510 6.469440 -0.000001 171.957000 7.813810 -165.857000 -39.081100 -0.002282 -0.040193 -0.054031 0.181454 17.541600 -40.985400 0.000008 0.000006 -9.982590 6.389430 -75.843200 -11.754300 -0.000006 -0.000006 -0.012275 0.287581 -4.884740
0.000000 0.000000 0.000000 0.000000 0.000000 -0.000000 0.997369 90.789100 10.443800 89.703200 1.419110 8.740620 15.735700 0.000005 -0.000001 -40.602800 89.584500 41.358100 8.984550 -0.406207 -0.000000 -8.301930 -0.734845 1.460650 16.377300 -0.000001 -0.000001 0.745548 0.735425 0.341893 6.456720 -0.000001 -0.000000 -0.577392 2.254370 -6.115300 12.994200 -0.242716 4.980390 -87.378700 -4.841440 -61.522200 5.348090 -0.000007 -0.000001 -48.431700 -54.839400 -97.677000 24.328600 0.000019 0.000005 0.067013 10.289900 -0.374855 22.291600 -0.000001 0.000005 30.498700 4.539070 15.949400 12.994500 -0.242716 -4.980390 94.878300 -8.776470 -60.778500 -5.348130 -0.000001 -0.000004 -61.100200 -51.633700 -114.872000 -24.328900 0.000322 -0.000009 -0.001043 -8.426040 -0.000050 -22.291500 -0.000108 -0.000004 41.391200 5.519000 -7.318940 -2.192480 -6.469440 -0.000000 -173.691000 -6.329150 12.438600 39.081100 -0.000007 -0.000012 0.081998 -0.236839 19.096800 40.985400 -0.000006 -0.000013 1.422770 14.472900 -76.077300 11.754300 -0.000000 0.000003 -0.003032 0.208595 -8.112530 -2.192510 6.469440 -0.000001 172.049000 7.761300 -165.888000 -39.081100 -0.002282 -0.040193 -0.056821 0.191587 17.429400 -40.985400 0.000008 0.000006 -10.100500 6.319630 -75.764300 -11.754300 -0.000006 -0.000006 -0.012227 0.287253 -4.898180
0.000000 0.000000 0.000000 0.000000 0.000000 -0.000000 0.955435 90.805400 10.460700 89.728200 1.424960 8.605990 15.735700 0.000005 -0.000001 -42.838700 89.576600 43.568200 8.984550 -0.406207 -0.000000 -8.337120 -0.721459 1.409970 16.377300 -0.000001 -0.000001 0.656500 0.733076 0.369829 6.456720 -0.000001 -0.000000 -0.498030 2.282180 -6.112090 12.994200 -0.242716 4.980390 -87.383600 -4.835380 -61.536900 5.348090 -0.000007 -0.000001 -48.277200 -54.758800 -97.591300 24.328600 0.000019 0.000005 0.060632 10.307100 -0.338607 22.291600 -0.000001 0.000005 30.669200 4.547690 15.804600 12.994500 -0.242716 -4.980390 94.854900 -8.733260 -60.777100 -5.348130 -0.000001 -0.000004 -60.974400 -51.728600 -114.720000 -24.328900 0.000322 -0.000009 -0.001042 -8.467230 -0.000050 -22.291500 -0.000108 -0.000004 41.200200 5.517180 -7.241950 -2.192480 -6.469440 -0.000000 -173.686000 -6.351030 12.427500 39.081100 -0.000007 -0.000012 0.077677 -0.227176 18.877000 40.985400 -0.000006 -0.000013 1.373500 14.517500 -75.976000 11.754300 -0.000000 0.000003 -0.002862 0.206658 -8.191350 -2.192510 6.469440 -0.000001 172.063000 7.749730 -165.950000 -39.081100 -0.002282 -0.040193 -0.058512 0.198570 17.297600 -40.985400 0.000008 0.000006 -10.172600 6.342190 -75.659400 -11.754300 -0.000006 -0.000006 -0.011895 0.284960 -4.992120
0.000000 0.000000 0.000000 0.000000 0.000000 -0.000000 0.929168 90.810100 10.484800 89.752400 1.395580 8.519980 15.735700 0.000005 -0.000001 -41.603400 89.572800 42.318400 8.984550 -0.406207 -0.000000 -8.328740 -0.737322 1.379540 16.377300 -0.000001 -0.000001 0.656366 0.749288 0.387123 6.456720 -0.000001 -0.000000 -0.585768 2.321800 -6.137340 12.994200 -0.242716 4.980390 -87.404200 -4.790670 -61.504700 5.348090 -0.000007 -0.000001 -48.345200 -54.716600 -97.661200 24.328600 0.000019 0.000005 0.065838 10.362600 -0.365731 22.291600 -0.000001 0.000005 30.627900 4.541730 15.904800 12.994500 -0.242716 -4.980390 94.861000 -8.747430 -60.785500 -5.348130 -0.000001 -0.000004 -60.900500 -51.761700 -114.587000 -24.328900 0.000322 -0.000009 -0.001043 -8.594920 -0.000051 -22.291500 -0.000108 -0.000004 41.298700 5.518250 -7.287780 -2.192480 -6.469440 -0.000000 -173.762000 -6.240090 12.391100 39.081100 -0.000007 -0.000012 0.079835 -0.234548 18.797500 40.985400 -0.000006 -0.000013 1.311010 14.340500 -75.991600 11.754300 -0.000000 0.000003 -0.003165 0.210080 -8.052060 -2.192510 6.469440 -0.000001 172.050000 7.834380 -166.018000 -39.081100 -0.002282 -0.040193 -0.057149 0.194262 17.291800 -40.985400 0.000008 0.000006 -10.105400 6.360650 -75.705600 -11.754300 -0.000006 -0.000006 -0.012240 0.287341 -4.894570
0.000000 0.000000 0.000000 0.000000 0.000000 -0.000000 0.897668 90.819900 10.494500 89.754100 1.340570 8.423450 15.735700 0.000005 -0.000001 -41.517000 89.579000 42.228100 8.984550 -0.406207 -0.000000 -8.319610 -0.728294 1.372470 16.377300 -0.000001 -0.000001 0.676119 0.758396 0.312454 6.456720 -0.000001 -0.000000 -0.681499 2.293000 -6.107180 12.994200 -0.242716 4.980390 -87.406100 -4.789830 -61.517600 5.348090 -0.000007 -0.000001 -48.147100 -54.739100 -97.443200 24.328600 0.000019 0.000005 0.061546 10.380900 -0.341302 22.291600 -0.000001 0.000005 30.572400 4.545040 15.849200 12.994500 -0.242716 -4.980390 94.861600 -8.744460 -60.774200 -5.348130 -0.000001 -0.000004 -60.843000 -51.787700 -114.485000 -24.328900 0.000322 -0.000009 -0.001043 -8.601710 -0.000051 -22.291500 -0.000108 -0.000004 41.266100 5.519170 -7.326780 -2.192480 -6.469440 -0.000000 -173.741000 -6.330380 12.381100 39.081100 -0.000007 -0.000012 0.080804 -0.239124 18.671100 40.985400 -0.000006 -0.000013 1.286890 14.371500 -75.960700 11.754300 -0.000000 0.000003 -0.002982 0.208030 -8.135510 -2.192510 6.469440 -0.000001 172.093000 7.779690 -166.087000 -39.081100 -0.002282 -0.040193 -0.058064 0.198142 17.214500 -40.985400 0.000008 0.000006 -10.078400 6.362400 -75.630800 -11.754300 -0.000006 -0.000006 -0.011907 0.285043 -4.988700
